# xmcd
#
# Track frame offsets:
#	150
#	13905
#	23452
#	35172
#	47335
#	63517
#	78620
#	89397
#	98740
#	110302
#	121585
#	132937
#	153692
#	165010
#	177685
#	190057
#	200792
#	214487
#	225865
#	237370
#
# Disc length: 3314 seconds
#
# Revision: 1
# Processed by: cddbd v1.5.1PL0 Copyright (c) Steve Scherf et al.
# Submitted via: audiograbber 1.83.01
#
DISCID=060cf014
DTITLE=Country - The Country Collection Disk #3
DYEAR=1900
DGENRE=Country
TTITLE0=Anne Murray - Danny's Song
TTITLE1=Johnny Cash - Just About Time
TTITLE2=Patsy Cline - Never No More
TTITLE3=Faron Young - Sweet Dreams Of You
TTITLE4=Sammi Smith - Fire And Rain
TTITLE5=Jimmy Dean - PT 109
TTITLE6=Connie Smith - Just For What I Am
TTITLE7=Mickey Gilley - Suzie Q
TTITLE8=Lynn Anderson - Taht'll Be The Day
TTITLE9=Johnny Cash - Big River
TTITLE10=Kitty Wells - It Wasn't God Who Made Honky Tonk Angels
TTITLE11=Sammy Smith - Sunday Morning Coming Down
TTITLE12=Connie Smith - Just One Time
TTITLE13=Kitty Wells - Makin' Believe
TTITLE14=Lynn Anderson - Listen To A Country Song
TTITLE15=Kenny Rogers - She Even Woke Me Up To Say Goodbye
TTITLE16=Anne Murray - Another Sleepless Night
TTITLE17=Johnny Paycheck - Please Release Me
TTITLE18=Kitty Wells - Love Is The Password
TTITLE19=Faron Young - Country  Girl
EXTD=
EXTT0=
EXTT1=
EXTT2=
EXTT3=
EXTT4=
EXTT5=
EXTT6=
EXTT7=
EXTT8=
EXTT9=
EXTT10=
EXTT11=
EXTT12=
EXTT13=
EXTT14=
EXTT15=
EXTT16=
EXTT17=
EXTT18=
EXTT19=
PLAYORDER=
